<mxfile host="app.diagrams.net" agent="Mozilla/5.0 (Windows NT 10.0; Win64; x64) AppleWebKit/537.36 (KHTML, like Gecko) Chrome/132.0.0.0 Safari/537.36 Edg/132.0.0.0" version="26.0.11">
  <diagram name="Page-1" id="HGjGNB82ebpnlBI2tgUe">
    <mxGraphModel dx="2587" dy="1045" grid="1" gridSize="10" guides="1" tooltips="1" connect="1" arrows="1" fold="1" page="1" pageScale="1" pageWidth="850" pageHeight="1100" math="0" shadow="0">
      <root>
        <mxCell id="0" />
        <mxCell id="1" parent="0" />
        <mxCell id="km5atBIeh4ZoDw7HOpsS-1" value="Clock-In / Clock-Out System" style="html=1;dashed=0;whiteSpace=wrap;shape=mxgraph.dfd.start;fontStyle=7" vertex="1" parent="1">
          <mxGeometry x="230" width="350" height="210" as="geometry" />
        </mxCell>
        <mxCell id="km5atBIeh4ZoDw7HOpsS-2" value="Break-Room Tablet" style="html=1;dashed=0;whiteSpace=wrap;" vertex="1" parent="1">
          <mxGeometry x="230" y="330" width="100" height="50" as="geometry" />
        </mxCell>
        <mxCell id="km5atBIeh4ZoDw7HOpsS-3" value="local server" style="shape=cylinder;whiteSpace=wrap;html=1;boundedLbl=1;backgroundOutline=1;" vertex="1" parent="1">
          <mxGeometry x="-380" y="315" width="60" height="80" as="geometry" />
        </mxCell>
        <mxCell id="km5atBIeh4ZoDw7HOpsS-4" value="Tablet sends user entrys and login data&lt;div&gt;&lt;br&gt;&lt;/div&gt;&lt;div&gt;data sink logs and sends clock in status&lt;/div&gt;" style="shape=rhombus;html=1;dashed=0;whiteSpace=wrap;perimeter=rhombusPerimeter;" vertex="1" parent="1">
          <mxGeometry x="-200" y="240" width="290" height="230" as="geometry" />
        </mxCell>
        <mxCell id="km5atBIeh4ZoDw7HOpsS-5" value="" style="shape=flexArrow;endArrow=classic;startArrow=classic;html=1;rounded=0;entryX=0;entryY=0.5;entryDx=0;entryDy=0;" edge="1" parent="1" source="km5atBIeh4ZoDw7HOpsS-4" target="km5atBIeh4ZoDw7HOpsS-2">
          <mxGeometry width="100" height="100" relative="1" as="geometry">
            <mxPoint x="380" y="455" as="sourcePoint" />
            <mxPoint x="521.4213562373095" y="355" as="targetPoint" />
          </mxGeometry>
        </mxCell>
        <mxCell id="km5atBIeh4ZoDw7HOpsS-6" value="" style="shape=flexArrow;endArrow=classic;startArrow=classic;html=1;rounded=0;entryX=0;entryY=0.5;entryDx=0;entryDy=0;exitX=1;exitY=0.5;exitDx=0;exitDy=0;" edge="1" parent="1" source="km5atBIeh4ZoDw7HOpsS-3" target="km5atBIeh4ZoDw7HOpsS-4">
          <mxGeometry width="100" height="100" relative="1" as="geometry">
            <mxPoint x="110" y="640" as="sourcePoint" />
            <mxPoint x="210" y="540" as="targetPoint" />
          </mxGeometry>
        </mxCell>
        <mxCell id="km5atBIeh4ZoDw7HOpsS-7" value="Actor" style="shape=umlActor;verticalLabelPosition=bottom;verticalAlign=top;html=1;outlineConnect=0;" vertex="1" parent="1">
          <mxGeometry x="265" y="490" width="30" height="60" as="geometry" />
        </mxCell>
        <mxCell id="km5atBIeh4ZoDw7HOpsS-8" value="" style="endArrow=none;dashed=1;html=1;rounded=0;entryX=0.5;entryY=1;entryDx=0;entryDy=0;exitX=0.5;exitY=0;exitDx=0;exitDy=0;exitPerimeter=0;" edge="1" parent="1" source="km5atBIeh4ZoDw7HOpsS-7" target="km5atBIeh4ZoDw7HOpsS-2">
          <mxGeometry width="50" height="50" relative="1" as="geometry">
            <mxPoint x="260" y="480" as="sourcePoint" />
            <mxPoint x="310" y="430" as="targetPoint" />
          </mxGeometry>
        </mxCell>
        <mxCell id="km5atBIeh4ZoDw7HOpsS-11" value="Empoyees need to:&lt;div&gt;- Be able to enter u_id&lt;/div&gt;&lt;div&gt;-press clock-in button&lt;/div&gt;&lt;div&gt;- press clock-out button&lt;/div&gt;&lt;div&gt;- remove double punches&lt;/div&gt;" style="whiteSpace=wrap;html=1;" vertex="1" parent="1">
          <mxGeometry x="220" y="560" width="120" height="160" as="geometry" />
        </mxCell>
        <mxCell id="km5atBIeh4ZoDw7HOpsS-13" value="" style="edgeStyle=none;orthogonalLoop=1;jettySize=auto;html=1;rounded=0;exitX=-0.013;exitY=0.838;exitDx=0;exitDy=0;exitPerimeter=0;" edge="1" parent="1" source="km5atBIeh4ZoDw7HOpsS-11" target="km5atBIeh4ZoDw7HOpsS-14">
          <mxGeometry width="80" relative="1" as="geometry">
            <mxPoint x="-50" y="780" as="sourcePoint" />
            <mxPoint x="30" y="780" as="targetPoint" />
            <Array as="points" />
          </mxGeometry>
        </mxCell>
        <mxCell id="km5atBIeh4ZoDw7HOpsS-14" value="&amp;nbsp;- need to be able to check punch status&lt;div&gt;- must only be able to see either own punchs/status&lt;/div&gt;" style="html=1;dashed=0;whiteSpace=wrap;" vertex="1" parent="1">
          <mxGeometry x="240" y="750" width="100" height="155" as="geometry" />
        </mxCell>
        <mxCell id="km5atBIeh4ZoDw7HOpsS-15" value="" style="endArrow=classic;startArrow=classic;html=1;rounded=0;entryX=0.5;entryY=1;entryDx=0;entryDy=0;exitX=0.5;exitY=0;exitDx=0;exitDy=0;" edge="1" parent="1" source="km5atBIeh4ZoDw7HOpsS-16" target="km5atBIeh4ZoDw7HOpsS-3">
          <mxGeometry width="50" height="50" relative="1" as="geometry">
            <mxPoint x="-350" y="510" as="sourcePoint" />
            <mxPoint x="-310" y="480" as="targetPoint" />
          </mxGeometry>
        </mxCell>
        <mxCell id="km5atBIeh4ZoDw7HOpsS-16" value="server needs to be attached to universal clock, and log data entries with associated time and date stamps.&lt;br&gt;clock-in punches need to be ran in a c(sub2) - c(sub1) type calculation to determine time clocked in.&lt;div&gt;then the shift needs to be compared to 4, 8, and 12 hours to determine appropriate break length to subtract.&lt;/div&gt;&lt;div&gt;&lt;br&gt;&lt;/div&gt;" style="shape=ellipse;html=1;dashed=0;whiteSpace=wrap;perimeter=ellipsePerimeter;" vertex="1" parent="1">
          <mxGeometry x="-760" y="590" width="570" height="610" as="geometry" />
        </mxCell>
        <mxCell id="km5atBIeh4ZoDw7HOpsS-17" value="" style="endArrow=classic;html=1;rounded=0;entryX=0;entryY=0.5;entryDx=0;entryDy=0;exitX=0.996;exitY=0.468;exitDx=0;exitDy=0;exitPerimeter=0;" edge="1" parent="1" source="km5atBIeh4ZoDw7HOpsS-18" target="km5atBIeh4ZoDw7HOpsS-3">
          <mxGeometry width="50" height="50" relative="1" as="geometry">
            <mxPoint x="-480" y="360" as="sourcePoint" />
            <mxPoint x="-680" y="490" as="targetPoint" />
          </mxGeometry>
        </mxCell>
        <mxCell id="km5atBIeh4ZoDw7HOpsS-18" value="universal clock" style="html=1;dashed=0;whiteSpace=wrap;shape=mxgraph.dfd.externalEntity" vertex="1" parent="1">
          <mxGeometry x="-650" y="320" width="100" height="100" as="geometry" />
        </mxCell>
        <mxCell id="km5atBIeh4ZoDw7HOpsS-19" value="Id" style="autosize=1;part=1;resizable=0;strokeColor=inherit;fillColor=inherit;gradientColor=inherit;" vertex="1" parent="km5atBIeh4ZoDw7HOpsS-18">
          <mxGeometry width="20" height="20" relative="1" as="geometry">
            <mxPoint x="15" y="15" as="offset" />
          </mxGeometry>
        </mxCell>
        <mxCell id="km5atBIeh4ZoDw7HOpsS-20" value="" style="endArrow=none;dashed=1;html=1;dashPattern=1 3;strokeWidth=2;rounded=0;" edge="1" parent="1">
          <mxGeometry width="50" height="50" relative="1" as="geometry">
            <mxPoint x="-510" y="480" as="sourcePoint" />
            <mxPoint x="-510" y="218.4000244140625" as="targetPoint" />
          </mxGeometry>
        </mxCell>
        <mxCell id="km5atBIeh4ZoDw7HOpsS-21" value="" style="endArrow=none;dashed=1;html=1;dashPattern=1 3;strokeWidth=2;rounded=0;" edge="1" parent="1">
          <mxGeometry width="50" height="50" relative="1" as="geometry">
            <mxPoint x="-270" y="430" as="sourcePoint" />
            <mxPoint x="-270" y="240" as="targetPoint" />
          </mxGeometry>
        </mxCell>
        <mxCell id="km5atBIeh4ZoDw7HOpsS-22" value="" style="endArrow=none;dashed=1;html=1;dashPattern=1 3;strokeWidth=2;rounded=0;" edge="1" parent="1">
          <mxGeometry width="50" height="50" relative="1" as="geometry">
            <mxPoint x="230" y="410" as="sourcePoint" />
            <mxPoint x="410" y="410" as="targetPoint" />
          </mxGeometry>
        </mxCell>
        <mxCell id="km5atBIeh4ZoDw7HOpsS-23" value="users are stupid evil monsters and must never be trusted" style="shape=note;whiteSpace=wrap;html=1;backgroundOutline=1;fontColor=#000000;darkOpacity=0.05;fillColor=#FFF9B2;strokeColor=none;fillStyle=solid;direction=west;gradientDirection=north;gradientColor=#FFF2A1;shadow=1;size=20;pointerEvents=1;" vertex="1" parent="1">
          <mxGeometry x="400" y="330" width="140" height="160" as="geometry" />
        </mxCell>
        <mxCell id="km5atBIeh4ZoDw7HOpsS-25" value="External Assets are the spawn of Daemons and must never be trusted" style="shape=note;whiteSpace=wrap;html=1;backgroundOutline=1;fontColor=#000000;darkOpacity=0.05;fillColor=#FFF9B2;strokeColor=none;fillStyle=solid;direction=west;gradientDirection=north;gradientColor=#FFF2A1;shadow=1;size=20;pointerEvents=1;" vertex="1" parent="1">
          <mxGeometry x="-565" y="60" width="335" height="160" as="geometry" />
        </mxCell>
        <mxCell id="km5atBIeh4ZoDw7HOpsS-26" value="" style="endArrow=classic;startArrow=classic;html=1;rounded=0;entryX=0.85;entryY=0.95;entryDx=0;entryDy=0;entryPerimeter=0;exitX=0.5;exitY=0;exitDx=0;exitDy=0;" edge="1" parent="1" source="km5atBIeh4ZoDw7HOpsS-28" target="km5atBIeh4ZoDw7HOpsS-3">
          <mxGeometry width="50" height="50" relative="1" as="geometry">
            <mxPoint x="-70" y="1190" as="sourcePoint" />
            <mxPoint x="-260" y="480" as="targetPoint" />
          </mxGeometry>
        </mxCell>
        <mxCell id="km5atBIeh4ZoDw7HOpsS-28" value="Accounting dept:&lt;div&gt;&lt;br&gt;&lt;/div&gt;&lt;div&gt;- needs to receive report from server with: u_id, hours on, wages, hours this pay period&lt;/div&gt;" style="html=1;dashed=0;whiteSpace=wrap;" vertex="1" parent="1">
          <mxGeometry x="-105" y="1210" width="215" height="130" as="geometry" />
        </mxCell>
        <mxCell id="km5atBIeh4ZoDw7HOpsS-29" value="" style="endArrow=classic;html=1;rounded=0;exitX=1;exitY=0.5;exitDx=0;exitDy=0;entryX=0;entryY=0.5;entryDx=0;entryDy=0;" edge="1" parent="1" source="km5atBIeh4ZoDw7HOpsS-11" target="km5atBIeh4ZoDw7HOpsS-30">
          <mxGeometry width="50" height="50" relative="1" as="geometry">
            <mxPoint x="410" y="670" as="sourcePoint" />
            <mxPoint x="450" y="640" as="targetPoint" />
          </mxGeometry>
        </mxCell>
        <mxCell id="km5atBIeh4ZoDw7HOpsS-30" value="user input limited to being only in u_id entry field and may not be executable code" style="shape=rhombus;html=1;dashed=0;whiteSpace=wrap;perimeter=rhombusPerimeter;" vertex="1" parent="1">
          <mxGeometry x="460" y="530" width="490" height="340" as="geometry" />
        </mxCell>
        <mxCell id="km5atBIeh4ZoDw7HOpsS-33" value="" style="curved=1;endArrow=classic;html=1;rounded=0;exitX=0.623;exitY=-0.021;exitDx=0;exitDy=0;exitPerimeter=0;entryX=0.5;entryY=0;entryDx=0;entryDy=0;" edge="1" parent="1" source="km5atBIeh4ZoDw7HOpsS-34" target="km5atBIeh4ZoDw7HOpsS-2">
          <mxGeometry width="50" height="50" relative="1" as="geometry">
            <mxPoint x="30" y="1030" as="sourcePoint" />
            <mxPoint x="220" y="300" as="targetPoint" />
            <Array as="points">
              <mxPoint x="-20" y="180" />
            </Array>
          </mxGeometry>
        </mxCell>
        <mxCell id="km5atBIeh4ZoDw7HOpsS-35" value="" style="curved=1;endArrow=classic;html=1;rounded=0;exitX=0.623;exitY=-0.021;exitDx=0;exitDy=0;exitPerimeter=0;entryX=0.5;entryY=0;entryDx=0;entryDy=0;" edge="1" parent="1" source="km5atBIeh4ZoDw7HOpsS-28" target="km5atBIeh4ZoDw7HOpsS-34">
          <mxGeometry width="50" height="50" relative="1" as="geometry">
            <mxPoint x="29" y="1207" as="sourcePoint" />
            <mxPoint x="280" y="330" as="targetPoint" />
            <Array as="points">
              <mxPoint x="140" y="820" />
              <mxPoint x="-150" y="610" />
              <mxPoint x="-430" y="250" />
            </Array>
          </mxGeometry>
        </mxCell>
        <mxCell id="km5atBIeh4ZoDw7HOpsS-34" value="Printed Report for Employees to check hours and wages" style="shape=cloud;whiteSpace=wrap;html=1;" vertex="1" parent="1">
          <mxGeometry x="-70" y="680" width="190" height="200" as="geometry" />
        </mxCell>
        <mxCell id="km5atBIeh4ZoDw7HOpsS-37" value="" style="endArrow=none;dashed=1;html=1;dashPattern=1 3;strokeWidth=2;rounded=0;" edge="1" parent="1">
          <mxGeometry width="50" height="50" relative="1" as="geometry">
            <mxPoint x="-140" y="1150" as="sourcePoint" />
            <mxPoint x="220" y="1160" as="targetPoint" />
          </mxGeometry>
        </mxCell>
        <mxCell id="km5atBIeh4ZoDw7HOpsS-38" value="never trust accountants they are evil" style="shape=note;whiteSpace=wrap;html=1;backgroundOutline=1;fontColor=#000000;darkOpacity=0.05;fillColor=#FFF9B2;strokeColor=none;fillStyle=solid;direction=west;gradientDirection=north;gradientColor=#FFF2A1;shadow=1;size=20;pointerEvents=1;" vertex="1" parent="1">
          <mxGeometry x="170" y="1060" width="140" height="160" as="geometry" />
        </mxCell>
        <mxCell id="km5atBIeh4ZoDw7HOpsS-39" value="" style="endArrow=classic;html=1;rounded=0;exitX=0;exitY=0;exitDx=0;exitDy=0;" edge="1" parent="1" source="km5atBIeh4ZoDw7HOpsS-30" target="km5atBIeh4ZoDw7HOpsS-23">
          <mxGeometry width="50" height="50" relative="1" as="geometry">
            <mxPoint x="550" y="590" as="sourcePoint" />
            <mxPoint x="600" y="540" as="targetPoint" />
          </mxGeometry>
        </mxCell>
        <mxCell id="km5atBIeh4ZoDw7HOpsS-40" value="&lt;h1&gt;Requirements:&lt;br&gt;&lt;br&gt;&lt;br&gt;- Needs to be able to:&lt;br&gt;&lt;br&gt;- Tell time&lt;br&gt;&lt;br&gt;- Access intra/internet&lt;br&gt;&lt;br&gt;- Receive user/HR input&lt;br&gt;&lt;br&gt;- Display output from Local Server&lt;br&gt;&lt;br&gt;- Local server needs to be able to talk to HR&lt;br&gt;&lt;br&gt;- send database info to HR&amp;nbsp;&lt;br&gt;&lt;br&gt;- HR needs to make payroll reports using their data in conjunction with clock-in/out data&lt;br&gt;&lt;br&gt;- need strong trust barriers between all 3 entities, too many humans.&lt;br&gt;&lt;br&gt;- need to ensure HIPPA compliance with transfer and storage of Employee&amp;nbsp; PID&lt;br&gt;&lt;br&gt;-&amp;nbsp;&lt;br&gt;&lt;br&gt;&lt;/h1&gt;" style="shape=note;whiteSpace=wrap;html=1;backgroundOutline=1;fontColor=#000000;darkOpacity=0.05;fillColor=#FFF9B2;strokeColor=none;fillStyle=solid;direction=west;gradientDirection=north;gradientColor=#FFF2A1;shadow=1;size=20;pointerEvents=1;align=left;" vertex="1" parent="1">
          <mxGeometry x="660" y="990" width="1030" height="840" as="geometry" />
        </mxCell>
      </root>
    </mxGraphModel>
  </diagram>
</mxfile>
